<?xml version="1.0" standalone="no"?>
<!DOCTYPE svg PUBLIC "-//W3C//DTD SVG 20010904//EN" "http://www.w3.org/TR/2001/REC-SVG-20010904/DTD/svg10.dtd">
<svg version="1.0" xmlns="http://www.w3.org/2000/svg" width="180.000000pt" height="180.000000pt" viewBox="0 0 180.000000 180.000000" preserveAspectRatio="xMidYMid meet">

<g transform="translate(0.000000,180.000000) scale(0.100000,-0.100000)" fill="#ffffff" stroke="none">
<path d="M0 1400 c0 -214 3 -390 8 -390 18 0 111 62 150 99 47 46 60 49 93 23
22 -19 22 -20 8 -98 -21 -119 -18 -249 8 -299 30 -58 85 -81 148 -64 65 18
121 96 161 222 20 63 41 82 80 73 30 -8 44 -41 44 -105 0 -66 25 -143 56 -172
22 -21 35 -24 97 -24 85 0 173 35 162 64 -19 49 -27 134 -16 193 28 161 138
278 262 278 88 0 141 -38 168 -122 24 -75 -27 -165 -180 -318 -87 -86 -88 -97
-9 -107 103 -14 250 61 450 227 l110 92 0 409 0 409 -900 0 -900 0 0 -390z"/>
<path d="M1218 1081 c-73 -37 -128 -163 -113 -260 l7 -46 93 98 c52 54 101
114 110 133 15 32 15 38 1 58 -19 31 -59 37 -98 17z"/>
<path d="M63 918 l-63 -30 0 -439 0 -439 900 0 900 0 0 411 0 411 -77 -64
c-275 -228 -497 -287 -628 -167 -20 17 -22 17 -85 -14 -58 -28 -75 -31 -155
-32 -81 0 -95 3 -138 28 -32 19 -56 44 -74 76 l-27 47 -31 -40 c-54 -71 -106
-100 -186 -104 -170 -10 -262 95 -263 300 -1 49 -3 88 -6 87 -3 0 -33 -14 -67
-31z"/>
</g>
</svg>

